# xmcd
#
# Track frame offsets: 
#        300
#        24526
#        49222
#        82813
#        109598
#        131239
#        148160
#        167182
#        194148
#        227923
#        249613
#        282487
#        309476
#
# Disc length: 4378 seconds
#
# Revision: 0
# Processed by: cddbd v1.5.2PL0 Copyright (c) Steve Scherf et al.
# Submitted via: ExactAudioCopy v1.0b1
#
DISCID=c511160d
DTITLE=Dave Specter - Spectified
DYEAR=2010
DGENRE=General Blues
TTITLE0=Stick To The Hip
TTITLE1=Octavate'n
TTITLE2=Soul Serenade
TTITLE3=Blues Call
TTITLE4=Alley Walk
TTITLE5=Wash Out
TTITLE6=The Funky Hunky
TTITLE7=Rumba and Tonic
TTITLE8=Azulado
TTITLE9=Slick Pick
TTITLE10=See See Rider
TTITLE11=Lumpus D' Rumpus
TTITLE12=Alley Walk (Acoustic)
EXTD=
EXTT0=
EXTT1=
EXTT2=
EXTT3=
EXTT4=
EXTT5=
EXTT6=
EXTT7=
EXTT8=
EXTT9=
EXTT10=
EXTT11=
EXTT12=
PLAYORDER=
